# xmcd CD database file
#
# Track frame offsets:
#	150
#	18542
#	38902
#	59242
#	83610
#	111297
#	138312
#	164125
#	184172
#	198722
#	218887
#	244017
#	263522
#
# Disc length: 3725 seconds
#
# Revision: 0
# Processed by: cddbd v1.5.2PL0 Copyright (c) Steve Scherf et al.
# Submitted via: Feurio! 1.64 - http://www.feurio.com
#
DISCID=c20e8b0d
DTITLE=Free - 2001 # Fire and Water ( dig. remastered )
DYEAR=2001
DGENRE=Blues Rock
TTITLE0=Fire and Water
TTITLE1=Oh I Wept 
TTITLE2=Remember
TTITLE3=Heavy Load
TTITLE4=Don`t Say You Love Me
TTITLE5=Mr. Big
TTITLE6=All Right Now
TTITLE7=Oh I Wept (Alternate Vocal Take
TTITLE8=Fire And Water (New Stereo Mix)
TTITLE9=Fire And Water (BBC Session)
TTITLE10=All Right Now (BBC Session)
TTITLE11=All Right Now (Single Version)
TTITLE12=All Right Now (First Version)
EXTD=
EXTT0=
EXTT1=
EXTT2=
EXTT3=
EXTT4=
EXTT5=
EXTT6=
EXTT7=
EXTT8=
EXTT9=
EXTT10=
EXTT11=
EXTT12=
PLAYORDER=
